<svg width="24" height="23" viewBox="0 0 24 23" fill="none" xmlns="http://www.w3.org/2000/svg">
<path d="M12 19.5358L18.1168 22.752C18.2887 22.8429 18.4803 22.8907 18.6748 22.8912L12 19.5358ZM12 19.5358L5.88323 22.752L12 19.5358ZM18.6757 21.8912C18.6438 21.8909 18.6125 21.8829 18.5843 21.868L18.5822 21.8669L12.4654 18.6507L12 18.406L11.5346 18.6507L5.41915 21.8662C5.41896 21.8663 5.41876 21.8664 5.41857 21.8665C5.38569 21.8836 5.34872 21.8912 5.31176 21.8885C5.27459 21.8858 5.2389 21.8728 5.20874 21.8509C5.17858 21.829 5.15513 21.7991 5.14106 21.7645C5.12704 21.7302 5.12285 21.6926 5.12897 21.656C5.12899 21.6558 5.12902 21.6557 5.12905 21.6555L6.29642 14.8457L6.38524 14.3276L6.00882 13.9606L1.0603 9.1369C1.03361 9.11084 1.01474 9.07784 1.00581 9.04162C0.996885 9.00539 0.998265 8.9674 1.00979 8.93192L0.0632676 8.62437L1.00979 8.93192C1.02132 8.89644 1.04254 8.8649 1.07105 8.84084C1.09949 8.81684 1.13406 8.80125 1.17087 8.79582C1.17096 8.7958 1.17105 8.79579 1.17114 8.79578L8.00953 7.80224L8.52977 7.72665L8.76246 7.25525L11.7991 1.10343C11.8198 1.07459 11.8465 1.05046 11.8774 1.03274C11.9149 1.01129 11.9574 1 12.0006 1C12.0438 1 12.0863 1.01129 12.1238 1.03274C12.1547 1.05045 12.1814 1.07457 12.2021 1.10339L15.2375 7.25511L15.4701 7.72664L15.9905 7.80224L22.8289 8.79578C22.8289 8.79579 22.829 8.7958 22.8291 8.79582C22.8659 8.80125 22.9005 8.81684 22.9289 8.84084C22.9575 8.86489 22.9787 8.89644 22.9902 8.93192C23.0017 8.9674 23.0031 9.00539 22.9942 9.04161C22.9853 9.07779 22.9664 9.11075 22.9398 9.13678C22.9398 9.13682 22.9397 9.13686 22.9397 9.1369L17.9912 13.9606L17.6147 14.3276L17.7036 14.8458L18.8725 21.6573C18.8774 21.686 18.876 21.7154 18.8683 21.7436C18.8607 21.7717 18.847 21.7978 18.8283 21.82C18.8095 21.8423 18.7861 21.8602 18.7597 21.8725C18.7346 21.8842 18.7053 21.8909 18.6757 21.8912Z" stroke="#1E232C" stroke-width="2"/>
</svg>
