<svg width="32" height="32" viewBox="0 0 32 32" fill="none" xmlns="http://www.w3.org/2000/svg">
<path d="M16.0001 32C15.8667 32 15.7267 31.98 15.6001 31.9333C-0.393278 26.3867 1.20672 6.09999 1.22006 5.89333C1.28006 5.23999 1.81339 4.75333 2.48672 4.77333C10.2734 5.03333 15.0867 0.399993 15.1334 0.353326C15.6134 -0.11334 16.3801 -0.11334 16.8534 0.353326C16.9334 0.433326 21.7801 5.03333 29.5001 4.77333C29.5134 4.77333 29.5267 4.77333 29.5401 4.77333C30.1734 4.77333 30.7067 5.25999 30.7667 5.89333C30.7867 6.09999 32.3867 26.38 16.3934 31.9333C16.2734 31.98 16.1334 32 16.0001 32ZM3.62672 7.23999C3.57339 11.2933 4.27339 25.0867 16.0001 29.46C27.7267 25.0867 28.4267 11.2933 28.3734 7.23999C22.1201 7.09999 17.7601 4.23999 16.0001 2.85333C14.2401 4.23999 9.88006 7.09999 3.62672 7.23999Z" fill="#FCFCFC"/>
<path d="M15.9999 25.96C15.8666 25.96 15.7266 25.94 15.5999 25.8933C5.77992 22.4867 6.75325 10.1067 6.75992 9.97999C6.81992 9.32666 7.35325 8.83332 8.02658 8.85999C12.3733 9.01332 15.1132 6.41332 15.1399 6.38666C15.6199 5.92666 16.3799 5.92666 16.8533 6.38666C16.8933 6.42666 19.6466 9.01332 23.9666 8.85999C24.6532 8.83332 25.1799 9.33332 25.2332 9.97999C25.2466 10.1067 26.2199 22.4867 16.3999 25.8933C16.2733 25.94 16.1333 25.96 15.9999 25.96ZM9.17992 11.3067C9.18658 14.04 9.83992 21 15.9999 23.42C22.0933 21.02 22.7799 14.0333 22.8133 11.3067C19.5599 11.1067 17.1933 9.72666 15.9999 8.85999C14.8066 9.72666 12.4399 11.1067 9.17992 11.3067Z" fill="#FCFCFC"/>
</svg>
