<svg width="24" height="23" viewBox="0 0 24 23" fill="none" xmlns="http://www.w3.org/2000/svg">
<path d="M18.6748 22.8912C18.4803 22.8907 18.2887 22.8429 18.1168 22.752L12 19.5358L5.88323 22.752C5.68518 22.8558 5.46207 22.9021 5.23907 22.8859C5.01607 22.8696 4.80205 22.7914 4.62113 22.66C4.44022 22.5286 4.2996 22.3493 4.21514 22.1423C4.13068 21.9353 4.10574 21.7088 4.14313 21.4883L5.3108 14.6767L0.361699 9.85241C0.201597 9.69609 0.0883874 9.49813 0.0348528 9.28087C-0.0186817 9.06361 -0.0104086 8.8357 0.0587381 8.6229C0.127885 8.41009 0.255151 8.22085 0.426166 8.07656C0.59718 7.93226 0.805132 7.83864 1.02654 7.80629L7.86575 6.81263L10.9247 0.615456C11.0349 0.428054 11.1922 0.272685 11.3809 0.164736C11.5696 0.0567862 11.7832 0 12.0006 0C12.218 0 12.4316 0.0567862 12.6203 0.164736C12.809 0.272685 12.9663 0.428054 13.0765 0.615456L16.1342 6.81263L22.9735 7.80629C23.1949 7.83864 23.4028 7.93226 23.5738 8.07656C23.7448 8.22085 23.8721 8.41009 23.9413 8.6229C24.0104 8.8357 24.0187 9.06361 23.9651 9.28087C23.9116 9.49813 23.7984 9.69609 23.6383 9.85241L18.6892 14.6767L19.8581 21.4883C19.8876 21.6605 19.8792 21.8371 19.8334 22.0056C19.7876 22.1742 19.7056 22.3308 19.593 22.4644C19.4804 22.598 19.34 22.7054 19.1817 22.7791C19.0233 22.8528 18.8495 22.8911 18.6748 22.8912Z" fill="#1E232C"/>
</svg>
